<?xml version="1.0" encoding="UTF-8" standalone="no"?><!DOCTYPE svg PUBLIC "-//W3C//DTD SVG 1.1//EN" "http://www.w3.org/Graphics/SVG/1.1/DTD/svg11.dtd"><svg width="100%" height="100%" viewBox="0 0 62 62" version="1.1" xmlns="http://www.w3.org/2000/svg" xmlns:xlink="http://www.w3.org/1999/xlink" xml:space="preserve" xmlns:serif="http://www.serif.com/" style="fill-rule:evenodd;clip-rule:evenodd;stroke-linejoin:round;stroke-miterlimit:2;"><path d="M18.48,52.56c-1.489,0.39 -1.395,1.781 -0.96,3.6c0.435,1.819 0.563,2.171 1.44,2.64c0.877,0.469 1.44,0.96 1.44,0.96c0,0 2.946,0.506 3.84,0.48c0.894,-0.026 2.086,0.688 2.64,0c0.554,-0.688 1.017,-3.158 0.96,-3.84c-0.057,-0.682 0.058,-1.435 -0.96,-1.68c-1.018,-0.245 -3.862,-0.804 -4.32,-0.96c-0.458,-0.156 -2.591,-1.59 -4.08,-1.2Z" style="fill:url(#_Linear1);"/><g id="Layer1"><path d="M20.16,27.36c0,0 -4.974,4.321 -5.28,4.8c-0.306,0.479 -1.335,4.841 -0.96,6.72c0.375,1.879 -0.268,6.165 0.96,8.64c1.228,2.475 3.211,5.386 3.84,5.76c0.629,0.374 7.488,2.195 9.6,2.4c2.112,0.205 9.323,0.685 11.52,0.48c2.197,-0.205 5.144,-1.04 6.72,-2.4c1.576,-1.36 3.471,-4.466 3.36,-7.2c-0.111,-2.734 -0.573,-5.605 -1.44,-8.16c-0.867,-2.555 -1.478,-4.14 -2.88,-6.24c-1.402,-2.1 -3.36,-4.8 -3.36,-4.8c0,0 -5.377,1.252 -11.52,1.44c-6.143,0.188 -10.56,-1.44 -10.56,-1.44Z" style="fill:url(#_Linear2);"/><path d="M21.6,27.84c-0.23,-0.882 -3.36,-1.92 -3.36,-1.92c0,0 -2.497,0.885 -3.36,1.92c-0.863,1.035 -2.596,2.986 -2.88,3.84c-0.284,0.854 0.683,1.49 -0.48,2.88c-1.163,1.39 -3.362,2.437 -3.36,3.36c0.002,0.923 0.296,2.141 0.48,4.32c0.184,2.179 0.589,5.441 1.92,6.72c1.331,1.279 5.472,5.622 7.2,5.28c1.728,-0.342 1.76,-1.163 0.96,-1.92c-0.8,-0.757 -1.994,-5.048 -1.92,-5.76c0.074,-0.712 -2.223,-1.632 -1.44,-2.88c0.783,-1.248 2.097,-3.682 1.44,-4.8c-0.657,-1.118 -1.488,-1.87 -0.48,-2.4c1.008,-0.53 2.063,-0.94 0.96,-1.92c-1.103,-0.98 -2.788,0.156 -0.96,-1.44c1.828,-1.596 1.476,-2.142 2.88,-2.88c1.404,-0.738 2.63,-1.518 2.4,-2.4Z" style="fill:url(#_Linear3);"/><path d="M44.16,26.4c-1.635,0.942 -3.846,0.405 -2.88,1.44c0.966,1.035 2.421,2.285 1.92,2.88c-0.501,0.595 -1.54,0.562 -0.48,1.92c1.06,1.358 2.191,5.685 2.88,6.24c0.689,0.555 2.237,0.285 1.92,1.44c-0.317,1.155 -1.212,-0.11 -0.96,4.8c0.252,4.91 -0.762,3.191 -1.44,4.8c-0.678,1.609 -3.004,4.228 -1.44,4.08c1.564,-0.148 3.734,-0.363 5.28,-0.72c1.546,-0.357 5.636,-1.727 6.24,-3.36c0.604,-1.633 0.429,-3.174 1.44,-4.32c1.011,-1.146 0.855,-2.073 0.48,-3.84c-0.375,-1.767 -3.374,-4.088 -3.84,-5.28c-0.466,-1.192 -1.871,-3.842 -2.88,-4.8c-1.009,-0.958 -2.749,-2.958 -3.36,-3.84c-0.611,-0.882 -1.245,-2.382 -2.88,-1.44Z" style="fill:url(#_Linear4);"/><path d="M45.84,54.24c-1.642,0.92 -1.19,0.852 -2.88,1.2c-1.69,0.348 -3.291,0.813 -4.32,0.72c-1.029,-0.093 -1.913,-0.426 -1.68,0.96c0.233,1.386 0.394,2.531 1.2,2.64c0.806,0.109 2.285,0.166 3.36,0.24c1.075,0.074 1.75,1.164 3.12,0.48c1.37,-0.684 2.186,-0.852 3.12,-0.96c0.934,-0.108 2.062,0.542 2.16,-0.48c0.098,-1.022 0.676,-1.993 -0.24,-2.64c-0.916,-0.647 -1.591,-1.764 -2.16,-1.92c-0.569,-0.156 -0.72,-0.96 -0.72,-0.96c0,0 0.682,-0.2 -0.96,0.72Z" style="fill:url(#_Linear5);"/><path d="M18.96,9.36c-0.134,1.365 -0.577,1.178 -1.68,2.16c-1.103,0.982 -2.032,1.947 -2.16,3.12c-0.128,1.173 -0.693,4.148 -0.48,4.56c0.213,0.412 0.452,1.914 0.96,2.4c0.508,0.486 1.118,2.555 1.44,2.88c0.322,0.325 0.44,1.362 1.2,1.68c0.76,0.318 1.023,1.238 1.92,1.44c0.897,0.202 3.645,1.458 6,1.44c2.355,-0.018 6.464,0.436 8.4,0c1.936,-0.436 3.474,-0.682 5.04,-0.96c1.566,-0.278 3.275,-0.589 4.32,-1.2c1.045,-0.611 2.364,-1.076 3.36,-1.68c0.996,-0.604 2.491,-1.713 3.12,-2.64c0.629,-0.927 1.264,-1.96 0.72,-3.36c-0.544,-1.4 -0.733,-1.719 -1.44,-2.64c-0.707,-0.921 -0.585,-2.697 -0.96,-3.36c-0.375,-0.663 -2.718,-2.266 -2.4,-3.12c0.318,-0.854 3.223,-5.937 3.6,-6.48c0.377,-0.543 -0.344,0.109 -3.12,0.48c-2.776,0.371 -6.353,0.894 -7.44,0.72c-1.087,-0.174 -5.684,-1.397 -8.16,-0.96c-2.476,0.437 -2.872,0.759 -4.8,0.72c-1.928,-0.039 -2.774,-0.294 -4.32,-0.48c-1.546,-0.186 -2.603,-0.855 -3.12,-1.2c-0.517,-0.345 -0.861,0.287 -0.48,0.72c0.381,0.433 0.436,1.932 -0.48,1.2c-0.916,-0.732 -2.451,-1.282 -1.44,-0.24c1.011,1.042 1.678,1.335 1.92,1.92c0.242,0.585 0.614,1.515 0.48,2.88Z" style="fill:url(#_Linear6);"/><path d="M14.88,6.48c0.6,-0.162 4.96,-0.352 5.76,-0.24c0.8,0.112 2.749,0.832 3.36,0.96c0.611,0.128 2.624,1.091 3.12,1.44c0.496,0.349 -3.177,-0.152 -4.08,0c-0.903,0.152 -3.284,0.196 -4.08,0c-0.796,-0.196 -3.573,-0.949 -3.84,-1.2c-0.267,-0.251 -0.84,-0.798 -0.24,-0.96Z" style="fill:url(#_Linear7);"/><path d="M43.2,6.72c-1.229,0.186 -2.672,0.623 -3.12,0.72c-0.448,0.097 -4.65,1.602 -4.08,1.68c0.57,0.078 5.467,0.258 6.24,0c0.773,-0.258 3.87,-0.415 5.04,-0.72c1.17,-0.305 3.733,-0.508 4.56,-0.72c0.827,-0.212 1.736,-1.142 0.48,-1.2c-1.256,-0.058 -3.116,0.093 -4.8,0c-1.684,-0.093 -3.091,0.054 -4.32,0.24Z" style="fill:url(#_Linear8);"/><path d="M19.92,15.6c-0.397,0.476 -2.889,1.78 -2.88,2.4c0.009,0.62 -0.877,1.457 0.96,3.6c1.837,2.143 4.528,5.35 12,5.28c7.472,-0.07 12.468,-1.999 14.64,-3.84c2.172,-1.841 2.474,-3.159 0.72,-4.8c-1.754,-1.641 -2.158,-2.124 -2.88,-3.12c-0.722,-0.996 -0.755,2.539 -3.84,2.88c-3.085,0.341 -5.753,1.455 -8.88,0.48c-3.127,-0.975 -3.615,-0.232 -4.8,-1.44c-1.185,-1.208 -2.213,-2.829 -2.64,-3.36c-0.427,-0.531 -0.72,-0.72 -0.72,-0.72c0,0 -1.283,2.164 -1.68,2.64Z" style="fill:url(#_Linear9);"/><path d="M23.52,8.4c0,0 -0.757,0.265 -1.68,1.2c-0.923,0.935 -1.845,2.467 -1.68,3.6c0.165,1.133 0.466,4.486 0.96,5.04c0.494,0.554 2.207,2.023 2.64,2.16c0.433,0.137 1.42,0.238 1.92,0.24c0.5,0.002 3.61,-0.144 4.32,-0.96c0.71,-0.816 2.191,-5.765 1.2,-6.96c-1.427,-1.72 -1.952,-2.482 -2.64,-3.12c-0.688,-0.638 -1.428,-1.104 -2.88,-1.2c-1.452,-0.096 -2.16,0 -2.16,0Z" style="fill:#fff;"/><path d="M37.2,8.4c-0.983,0.322 -1.536,0.196 -2.88,1.2c-1.344,1.004 -2.437,2.474 -2.64,3.36c-0.203,0.886 -0.258,4.691 0.24,5.28c0.498,0.589 3.402,2.329 4.32,2.4c0.918,0.071 4.693,-0.249 5.28,-0.96c0.587,-0.711 2.374,-3.715 2.16,-5.28c-0.214,-1.565 0.029,-2.874 -0.72,-3.84c-0.749,-0.966 -0.338,-1.244 -1.92,-1.68c-1.582,-0.436 -3.84,-0.48 -3.84,-0.48" style="fill:#fff;"/><path d="M31.2,14.64c-0.733,0.356 -1.941,0.886 -2.4,1.44c-0.459,0.554 -1.812,1.439 -1.92,1.92c-0.108,0.481 -1.274,0.324 -1.44,0.96c-0.166,0.636 -0.732,1.976 -0.24,2.16c0.492,0.184 2.182,2.37 2.4,2.88c0.218,0.51 0.72,1.2 0.72,1.2c0,0 1.12,-2.309 2.4,-3.12c1.28,-0.811 2.4,-0.48 2.4,-0.48c0,0 2.47,-0.09 2.4,-0.96c-0.07,-0.87 -0.604,-1.866 -0.72,-2.64c-0.116,-0.774 -0.227,-1.726 -1.2,-2.4c-0.973,-0.674 -1.667,-1.316 -2.4,-0.96Z" style="fill:url(#_Linear10);"/><ellipse cx="25.56" cy="15.36" rx="1.32" ry="2.4"/><ellipse cx="36.6" cy="15.48" rx="1.32" ry="2.52"/></g><defs><linearGradient id="_Linear1" x1="0" y1="0" x2="1" y2="0" gradientUnits="userSpaceOnUse" gradientTransform="matrix(10.604771,0,0,8.04708,17.239997,56.516652)"><stop offset="0" style="stop-color:#ffb861;stop-opacity:1"/><stop offset="1" style="stop-color:#ffb44b;stop-opacity:1"/></linearGradient><linearGradient id="_Linear2" x1="0" y1="0" x2="1" y2="0" gradientUnits="userSpaceOnUse" gradientTransform="matrix(36.08594,0,0,28.849995,13.838709,41.784998)"><stop offset="0" style="stop-color:#afe1eb;stop-opacity:1"/><stop offset="1" style="stop-color:#f6fcff;stop-opacity:1"/></linearGradient><linearGradient id="_Linear3" x1="0" y1="0" x2="1" y2="0" gradientUnits="userSpaceOnUse" gradientTransform="matrix(13.467846,0,0,28.339076,8.159999,40.089538)"><stop offset="0" style="stop-color:#96e8f9;stop-opacity:1"/><stop offset="1" style="stop-color:#46a0d4;stop-opacity:1"/></linearGradient><linearGradient id="_Linear4" x1="0" y1="0" x2="1" y2="0" gradientUnits="userSpaceOnUse" gradientTransform="matrix(16.362907,0,0,27.310244,41.044231,39.755488)"><stop offset="0" style="stop-color:#96e8f9;stop-opacity:1"/><stop offset="1" style="stop-color:#0574b5;stop-opacity:1"/></linearGradient><linearGradient id="_Linear5" x1="0" y1="0" x2="1" y2="0" gradientUnits="userSpaceOnUse" gradientTransform="matrix(13.267735,0,0,7.203181,36.922399,57.103149)"><stop offset="0" style="stop-color:#ffb44b;stop-opacity:1"/><stop offset="1" style="stop-color:#ffb860;stop-opacity:1"/></linearGradient><linearGradient id="_Linear6" x1="0" y1="0" x2="1" y2="0" gradientUnits="userSpaceOnUse" gradientTransform="matrix(36.733696,0,0,26.449315,14.59251,16.005329)"><stop offset="0" style="stop-color:#93e5f7;stop-opacity:1"/><stop offset="1" style="stop-color:#0b79b8;stop-opacity:1"/></linearGradient><linearGradient id="_Linear7" x1="0" y1="0" x2="1" y2="0" gradientUnits="userSpaceOnUse" gradientTransform="matrix(12.550093,0,0,2.565106,14.61572,7.488665)"><stop offset="0" style="stop-color:#97e9fa;stop-opacity:1"/><stop offset="1" style="stop-color:#e6fdff;stop-opacity:1"/></linearGradient><linearGradient id="_Linear8" x1="0" y1="0" x2="1" y2="0" gradientUnits="userSpaceOnUse" gradientTransform="matrix(16.992813,0,0,2.802839,35.946913,7.85283)"><stop offset="0" style="stop-color:#d6f1ff;stop-opacity:1"/><stop offset="1" style="stop-color:#97e9fa;stop-opacity:1"/></linearGradient><linearGradient id="_Linear9" x1="0" y1="0" x2="1" y2="0" gradientUnits="userSpaceOnUse" gradientTransform="matrix(29.663125,0,0,13.921118,16.834167,19.920559)"><stop offset="0" style="stop-color:#b5f2ff;stop-opacity:1"/><stop offset="1" style="stop-color:#7fb7d8;stop-opacity:1"/></linearGradient><linearGradient id="_Linear10" x1="0" y1="0" x2="1" y2="0" gradientUnits="userSpaceOnUse" gradientTransform="matrix(10.518123,0,0,10.661457,25.003325,19.869271)"><stop offset="0" style="stop-color:#ff9f19;stop-opacity:1"/><stop offset="1" style="stop-color:#ffb861;stop-opacity:1"/></linearGradient></defs></svg>
